<?xml version="1.0" encoding="UTF-8" standalone="no"?>
<!-- Created with Inkscape (http://www.inkscape.org/) -->

<svg
   width="162.54727mm"
   height="69.296646mm"
   viewBox="0 0 162.54727 69.296646"
   version="1.1"
   id="svg1"
   xml:space="preserve"
   sodipodi:docname="logo.svg"
   inkscape:version="1.4.3 (0d15f75042, 2025-12-25)"
   inkscape:export-filename="logo.png"
   inkscape:export-xdpi="96"
   inkscape:export-ydpi="96"
   xmlns:inkscape="http://www.inkscape.org/namespaces/inkscape"
   xmlns:sodipodi="http://sodipodi.sourceforge.net/DTD/sodipodi-0.dtd"
   xmlns="http://www.w3.org/2000/svg"
   xmlns:svg="http://www.w3.org/2000/svg"><sodipodi:namedview
     id="namedview1"
     pagecolor="#ffffff"
     bordercolor="#000000"
     borderopacity="0.25"
     inkscape:showpageshadow="2"
     inkscape:pageopacity="0.0"
     inkscape:pagecheckerboard="0"
     inkscape:deskcolor="#d1d1d1"
     inkscape:document-units="mm"
     inkscape:zoom="1.4307099"
     inkscape:cx="232.40211"
     inkscape:cy="37.394024"
     inkscape:window-width="1853"
     inkscape:window-height="1011"
     inkscape:window-x="0"
     inkscape:window-y="0"
     inkscape:window-maximized="1"
     inkscape:current-layer="layer1" /><defs
     id="defs1" /><g
     id="layer1"
     transform="translate(-27.814351,-54.620877)"><text
       xml:space="preserve"
       style="font-weight:bold;font-size:4.23333px;font-family:'Trajan Pro';-inkscape-font-specification:'Trajan Pro, Bold';letter-spacing:0.780521px;writing-mode:lr-tb;direction:ltr;fill:#000000;stroke-width:0.264583"
       x="55.675777"
       y="119.9017"
       id="text1"><tspan
         sodipodi:role="line"
         id="tspan1"
         style="font-style:normal;font-variant:normal;font-weight:bold;font-stretch:normal;font-size:4.23333px;font-family:'Penumbra Sans Std';-inkscape-font-specification:'Penumbra Sans Std Bold';letter-spacing:0.780521px;stroke-width:0.264583"
         x="55.675777"
         y="119.9017">THE SMILE IS OURS  THE WORLD IS YOURS</tspan></text><g
       id="g12"
       transform="matrix(0.65237738,0,0,0.65237738,46.315031,-57.864608)"
       style="display:inline"><path
         style="font-size:9.17222px;font-family:'Penumbra Sans Std';-inkscape-font-specification:'Penumbra Sans Std, @opsz=32';font-variation-settings:'opsz' 32;letter-spacing:6.05896px;word-spacing:0px;fill:#1a1a1a;stroke-width:0.264583"
         d="m 70.508051,248.90169 c 0,-1.16487 -0.522817,-2.27471 -1.458383,-2.8709 -0.632883,-0.40358 -1.440039,-0.60537 -2.357261,-0.60537 -0.284339,0 -0.559505,0 -0.843844,0.0183 -0.275167,0.009 -0.4953,0.0275 -0.651228,0.0459 v 0.0367 2.96263 0.91722 3.15525 0.0275 c 0.1651,0.0183 0.376061,0.0275 0.568678,0.0367 0.229306,0.009 0.596194,0.0183 0.889705,0.0183 0.999772,0 1.889478,-0.24765 2.549878,-0.80716 0.807155,-0.65123 1.302455,-1.60514 1.302455,-2.92594 z m -0.889705,0.0367 c 0,1.03646 -0.385234,1.77941 -0.963084,2.27471 -0.467783,0.42192 -1.183216,0.65123 -1.916994,0.65123 -0.210961,0 -0.504472,-0.009 -0.669572,-0.0275 -0.0092,0 -0.01834,0 -0.01834,-0.0183 v -5.59506 c 0.183444,-0.009 0.458611,-0.0275 0.687916,-0.0275 0.697089,0 1.375833,0.19261 1.806928,0.51364 0.669572,0.50447 1.07315,1.29328 1.07315,2.21968 z m 8.049326,0.46778 v 3.19194 0.0183 h 1.761067 1.577621 v -0.76129 h -0.01834 -0.651228 -1.816099 v -0.055 -2.46733 h 1.476727 0.706261 0.01834 v -0.36688 -0.36689 h -0.01834 -0.724605 -1.458383 v -2.38478 h 1.421694 0.944739 0.01834 v -0.75212 h -1.605139 -1.632655 v 0.0183 3.00849 z m 16.075022,-0.91722 v -3.00849 -0.0183 H 93.35746 92.94471 v 0.0183 2.95346 c 0,1.67851 0,1.9812 0.0092,2.35726 h -0.01835 c -0.376061,-0.46779 -0.669572,-0.80716 -1.036461,-1.23825 -0.632883,-0.73378 -1.69686,-1.99037 -3.586338,-4.19171 h -0.09172 v 4.04495 3.19194 0.0183 h 0.376061 0.41275 v -0.0183 -3.12773 c 0,-1.47673 0,-1.82527 -0.0092,-2.17382 H 89.019 c 0.440267,0.56868 0.706261,0.86219 1.119011,1.32997 0.642055,0.75213 1.687689,1.97203 3.503788,4.08164 h 0.100895 z m 9.021576,0.91722 v 3.18276 0.0275 h 0.4311 0.42192 v -0.0183 -3.19194 -3.2011 h 1.49507 0.58703 0.0459 v -0.74295 h -2.21051 -0.7246 -2.17382 v 0.74295 h 0.0459 0.55951 1.52258 z m 12.59875,1.20156 c 0.60537,1.51342 0.77047,1.92617 0.78881,1.99038 v 0.0183 h 0.47696 0.45861 v -0.0183 c -0.0183,-0.0642 -0.18344,-0.47696 -1.28411,-3.19194 l -1.64183,-4.06329 h -0.11006 l -1.68769,4.04495 c -1.13736,2.74249 -1.32997,3.15524 -1.34832,3.21028 v 0.0183 h 0.47696 0.40357 v -0.0183 c 0.0275,-0.0642 0.19262,-0.47696 0.81633,-1.99038 z m -2.36643,-0.71543 0.009,-0.0275 c 0.80716,-2.02706 0.94474,-2.3756 1.05481,-2.71497 h 0.0183 c 0.1009,0.33937 0.22931,0.68791 1.00895,2.71497 v 0.0275 z m 10.92941,-0.48613 v 3.16442 0.0459 h 1.76107 1.55928 v -0.76129 h -0.0275 -0.23848 -0.38523 -1.77941 c -0.0367,0 -0.0367,-0.009 -0.0367,-0.0459 v -2.40312 -0.91722 -2.99014 -0.0367 h -0.43109 -0.42193 v 0.0367 2.99014 z"
         id="text11"
         aria-label="DENTAL" /><path
         id="rect12"
         style="font-variation-settings:'opsz' 32;fill:#1a1a1a;stroke-width:0.264583"
         d="m 17.953426,248.56319 h 30.483562 c 0.1108,0 0.2,0.0892 0.2,0.2 v 0.52465 c 0,0.1108 -0.0892,0.2 -0.2,0.2 H 17.953426 c -0.1108,0 -0.2,-0.0892 -0.2,-0.2 v -0.52465 c 0,-0.1108 0.0892,-0.2 0.2,-0.2 z" /><path
         id="rect12-4"
         style="font-variation-settings:'opsz' 32;fill:#1a1a1a;stroke-width:0.264583"
         d="m 144.0067,248.56319 h 30.48356 c 0.1108,0 0.2,0.0892 0.2,0.2 v 0.52465 c 0,0.1108 -0.0892,0.2 -0.2,0.2 H 144.0067 c -0.1108,0 -0.2,-0.0892 -0.2,-0.2 v -0.52465 c 0,-0.1108 0.0892,-0.2 0.2,-0.2 z" /></g><g
       id="g13"
       transform="translate(-2.5890407,13.001999)"><path
         id="rect11-4"
         style="display:inline;fill:#1a1a1a;stroke-width:0.144124"
         d="m 105.96565,44.264713 h 8.26912 c 0.22624,0 0.40838,0.144835 0.40838,0.324742 0,0.179907 -0.18214,0.324742 -0.40838,0.324742 h -8.26912 c -0.22624,0 -0.40838,-0.144835 -0.40838,-0.324742 0,-0.179907 0.18214,-0.324742 0.40838,-0.324742 z" /><path
         style="font-size:36.7528px;font-family:Forum;-inkscape-font-specification:'Forum, Normal';font-variation-settings:'opsz' 32;letter-spacing:14.478px;word-spacing:0px;fill:#1a1a1a;stroke-width:0.984449"
         d="m 30.403392,74.096629 h 0.183764 q 0.294022,0 0.514539,-0.183764 0.220517,-0.220517 0.367528,-0.514539 0.183764,-0.294022 0.257269,-0.624798 0.110259,-0.330775 0.110259,-0.624797 V 52.485983 q 0,-0.25727 -0.110259,-0.588045 -0.07351,-0.330775 -0.257269,-0.624798 -0.147011,-0.294022 -0.367528,-0.477786 -0.220517,-0.220517 -0.514539,-0.220517 h -0.183764 v -0.367528 h 5.292403 v 0.367528 h -0.183764 q -0.294023,0 -0.514539,0.220517 -0.220517,0.183764 -0.367528,0.477786 -0.147012,0.294023 -0.25727,0.624798 -0.07351,0.330775 -0.07351,0.588045 v 20.618321 h 8.048864 q 0.698303,0 1.212842,-0.330776 0.514539,-0.330775 0.845314,-0.808561 0.367528,-0.514539 0.51454,-1.065831 0.183764,-0.588045 0.183764,-1.065832 h 0.367528 v 4.630853 H 30.403392 Z m 45.607627,0 h 0.183764 q 0.882067,0 0.882067,-0.808561 0,-0.294023 -0.110258,-0.624798 L 73.65884,63.73234 H 67.2271 l -3.197494,8.783919 q -0.110258,0.294022 -0.110258,0.551292 0,0.477786 0.25727,0.771809 0.257269,0.257269 0.551292,0.257269 h 0.183764 v 0.367528 h -4.079561 v -0.367528 h 0.183764 q 0.477786,0 0.91882,-0.551292 0.477786,-0.588045 0.771809,-1.359853 l 8.416391,-22.419208 8.232627,22.198691 q 0.25727,0.735056 0.698303,1.433359 0.477787,0.698303 1.212843,0.698303 h 0.183764 v 0.367528 H 76.011019 Z M 67.594628,62.482744 h 5.659931 l -2.829965,-7.681335 z m 50.311982,11.613885 h 0.18377 q 0.25727,0 0.47779,-0.220517 0.22051,-0.220516 0.36752,-0.514539 0.18377,-0.294022 0.25727,-0.624797 0.0735,-0.367528 0.0735,-0.661551 V 52.743252 l -9.48222,22.125186 -9.00444,-20.985849 v 18.192636 q 0,0.294023 0.0735,0.661551 0.0735,0.330775 0.22051,0.624797 0.18377,0.294023 0.40428,0.514539 0.22052,0.220517 0.51454,0.220517 h 0.18377 v 0.367528 h -4.006059 v -0.367528 h 0.183764 q 0.25727,0 0.477787,-0.220517 0.220517,-0.220516 0.367528,-0.514539 0.147011,-0.294022 0.220517,-0.624797 0.0735,-0.367528 0.0735,-0.661551 V 52.485983 q 0,-0.25727 -0.0735,-0.588045 -0.07351,-0.330775 -0.220517,-0.624798 -0.147011,-0.294022 -0.367528,-0.477786 -0.220517,-0.220517 -0.477787,-0.220517 h -0.183764 v -0.367528 h 3.748789 l 8.52665,20.103782 8.52665,-20.103782 h 4.15306 v 0.367528 h -0.18376 q -0.29402,0 -0.51454,0.220517 -0.22052,0.183764 -0.40428,0.477786 -0.14701,0.294023 -0.22052,0.624798 -0.0735,0.330775 -0.0735,0.588045 v 19.589242 q 0,0.294023 0.0735,0.661551 0.0735,0.330775 0.22052,0.624797 0.18376,0.294023 0.40428,0.514539 0.22052,0.220517 0.51454,0.220517 h 0.18376 v 0.367528 h -5.2189 z m 23.26194,0 h 0.18377 q 0.29402,0 0.51453,-0.183764 0.22052,-0.220517 0.36753,-0.514539 0.18377,-0.294022 0.25727,-0.624798 0.11026,-0.330775 0.11026,-0.624797 V 52.485983 q 0,-0.25727 -0.11026,-0.588045 -0.0735,-0.330775 -0.25727,-0.624798 -0.14701,-0.294022 -0.36753,-0.477786 -0.22051,-0.220517 -0.51453,-0.220517 h -0.18377 v -0.367528 h 14.14983 v 3.418011 h -0.36753 q -0.0735,-0.845315 -0.66155,-1.470112 -0.58804,-0.661551 -1.83764,-0.661551 h -7.38731 v 9.298459 h 6.10096 q 0.84532,0 1.39661,-0.51454 0.58804,-0.514539 0.58804,-1.212842 h 0.36753 v 4.5941 h -0.36753 q 0,-0.66155 -0.55129,-1.139337 -0.55129,-0.477786 -1.43336,-0.477786 h -6.10096 v 11.136098 h 8.04886 q 0.6983,0 1.21284,-0.330775 0.51454,-0.330775 0.84532,-0.771809 0.36753,-0.477786 0.51454,-0.992325 0.18376,-0.551292 0.18376,-0.91882 h 0.36753 v 4.300077 h -15.06865 z m 46.34269,0 h 0.18377 q 0.88207,0 0.88207,-0.808561 0,-0.294023 -0.11026,-0.624798 l -3.30775,-8.93093 h -6.43174 l -3.1975,8.783919 q -0.11026,0.294022 -0.11026,0.551292 0,0.477786 0.25727,0.771809 0.25727,0.257269 0.55129,0.257269 h 0.18377 v 0.367528 h -4.07956 v -0.367528 h 0.18376 q 0.47779,0 0.91882,-0.551292 0.47779,-0.588045 0.77181,-1.359853 l 8.41639,-22.419208 8.23263,22.198691 q 0.25727,0.735056 0.6983,1.433359 0.47779,0.698303 1.21284,0.698303 h 0.18377 v 0.367528 h -5.43942 z m -8.41639,-11.613885 h 5.65993 l -2.82996,-7.681335 z"
         id="text13"
         aria-label="LAMEA" /></g><circle
       style="fill:#000000;stroke-width:0.264583"
       id="path1"
       cx="106.75473"
       cy="118.30994"
       r="0.64726025" /></g></svg>
